# xmcd
#
# Track frame offsets: 
#        150
#        21505
#        40812
#        59904
#        77085
#        94703
#        114832
#        129356
#        145175
#        161653
#        175804
#        193492
#
# Disc length: 2828 seconds
#
# Revision: 4
# Processed by: cddbd v1.5.2PL0 Copyright (c) Steve Scherf et al.
# Submitted via: ExactAudioCopyFreeDBPlugin 1.0
#
DISCID=a70b0a0c
DTITLE=Chris Rea - 2005 - Blue Guitars Cd 4 [Electric Memphis Blues]
DYEAR=2005
DGENRE=Blues
TTITLE0=Electric Guitar
TTITLE1=Electric Memphis Blues
TTITLE2=All Night Long
TTITLE3=Born Bad
TTITLE4=Let's Start Again
TTITLE5=What I'm Looking For
TTITLE6=Rules Of Love
TTITLE7=What You Done To Me
TTITLE8=Hobo Love Blues
TTITLE9=Pass Me By
TTITLE10=The Soul Of My Father's Shadow
TTITLE11=My Blue World Says Hello
EXTD=
EXTT0=
EXTT1=
EXTT2=
EXTT3=
EXTT4=
EXTT5=
EXTT6=
EXTT7=
EXTT8=
EXTT9=
EXTT10=
EXTT11=
PLAYORDER=
